<?xml version="1.0" encoding="iso-8859-1"?>
<!-- Generator: Adobe Illustrator 18.1.1, SVG Export Plug-In . SVG Version: 6.00 Build 0)  -->
<svg version="1.1" id="Capa_1" xmlns="http://www.w3.org/2000/svg" xmlns:xlink="http://www.w3.org/1999/xlink" x="0px" y="0px"
	 viewBox="0 0 34.0 34.0" style="enable-background:new 0 0 34.0 34.0;" xml:space="preserve">
<defs>
  <clipPath id="svgPath">
    <path d="M19.86734569316007,4.744899010171693 C19.86734569316007,4.744899010171693 17.826529366629458,8.663266357110466 17.795917121731506,8.653062275477815 C17.826529366629458,8.663266357110466 5.581631407445784,20.663266357110466 5.551019162547831,20.653062275477822 C5.581631407445784,20.663266357110466 5.1734681421396616,25.153062275477815 5.142855897241709,25.142858193845164 C5.1734681421396616,25.153062275477815 8.602039570711092,27.84693982649822 8.57142732581314,27.836735744865578 C8.602039570711092,27.84693982649822 12.112243652343743,27.602041867314547 12.08163140744579,27.591837785681903 C12.112243652343743,27.602041867314547 26.316325284996793,13.479592887722717 26.285713040098855,13.469388806090073 C26.316325284996793,13.479592887722717 29.499998754384563,2.948980642824754 29.46938650948661,2.9387765611921033 C29.499998754384563,2.948980642824754 33.010202836017214,9.316327581600262 32.97959059111926,9.306123499967612 C33.010202836017214,9.316327581600262 31.459182427853932,22.29591941833496 31.428570182955994,22.28571533670231 C31.459182427853932,22.29591941833496 21.663264060507004,30.704082683641083 21.63265181560905,30.693878602008425 C21.663264060507004,30.704082683641083 7.622447733976394,34.7857153367023 7.591835489078441,34.77551125506965 C7.622447733976394,34.7857153367023 0.1122436523437429,30.785715336702303 0.1122436523437429,30.785715336702303 C0.1122436523437429,30.785715336702303 -0.2959196129623791,17.642858193845164 -0.32653185786033134,17.632654112212514 C-0.2959196129623791,17.642858193845164 14.887753856425377,2.7857153367023066 14.857141611527425,2.775511255069656 C14.887753856425377,2.7857153367023066 19.86734569316007,4.744899010171693 19.86734569316007,4.744899010171693 z"/>
  </clipPath>
</defs>
<g clip-path="url(#svgPath)">
	<path d="M24.176775083959104,14.551489244759082 c0,0 1.227,-0.933 0.2930000000000003,-1.866 c-0.934,-0.933 -1.842,0.271 -1.842,0.271 l-9.389,9.391 c0,0 -2.199,2.838 -3.871,1.122 c-1.6700000000000008,-1.718 1.121,-3.872 1.121,-3.872 l12.311,-12.31 c0,0 2.873,-3.165 5.574,-0.466 c2.697,2.7 -0.4770000000000003,5.579 -0.4770000000000003,5.579 L14.0637750839591,26.23348924475908 c0,0 -4.426,5.113 -8.523,1.015 s1.066,-8.474 1.066,-8.474 L17.108775083959102,8.269489244759082 c0,0 1.176,-0.982 0.2950000000000003,-1.866 c-0.8850000000000008,-0.8830000000000008 -1.8650000000000002,0.2950000000000003 -1.8650000000000002,0.2950000000000003 L3.487775083959103,18.749489244759083 c0,0 -4.549,4.989 0.531,10.068 c5.08,5.082 10.072,0.533 10.072,0.533 l16.563,-16.565 c0,0 3.314,-3.6550000000000002 -0.6370000000000008,-7.6080000000000005 s-7.607,-0.6390000000000008 -7.607,-0.6390000000000008 L8.157775083959102,18.788489244759084 c0,0 -3.6500000000000004,2.9690000000000003 -0.33800000000000047,6.279 c3.3120000000000003,3.314 6.227,-0.3900000000000004 6.227,-0.3900000000000004 L24.176775083959104,14.551489244759082 z"/>
</g>
</svg>
